<svg width="80" height="80" viewBox="0 0 80 80" fill="none" xmlns="http://www.w3.org/2000/svg">
<path d="M0 30C0 13.4315 13.4315 0 30 0H50C66.5685 0 80 13.4315 80 30V50C80 66.5685 66.5685 80 50 80H30C13.4315 80 0 66.5685 0 50V30Z" fill="url(#paint0_linear_123_285)"/>
<path d="M64.7999 11.2L60.2083 63.2592L39.5691 69.0503L18.9866 63.2674L14.3999 11.2H64.7999Z" fill="#FAFAFA"/>
<path d="M24.915 34.7683L25.4805 41.1541H39.6001V34.7683H24.915Z" fill="#44104D"/>
<path d="M39.5997 21.8432H39.5779H23.7783L24.3519 28.2291H39.5997V21.8432Z" fill="#44104D"/>
<path d="M39.5999 57.9971V51.3531L39.5722 51.3606L32.5452 49.4402L32.096 44.3472H28.6814H25.7622L26.6462 54.3739L39.5708 58.0052L39.5999 57.9971Z" fill="#400D48"/>
<path d="M47.3476 41.1541L46.6153 49.4361L39.5781 51.3584V58.0021L52.5131 54.3738L52.6079 53.295L54.0906 36.4831L54.2446 34.7683L55.3836 21.8432H39.5781V28.2291H48.4689L47.8948 34.7683H39.5781V41.1541H47.3476Z" fill="#400D48"/>
<defs>
<linearGradient id="paint0_linear_123_285" x1="40" y1="0" x2="40" y2="80" gradientUnits="userSpaceOnUse">
<stop stop-color="#320439"/>
<stop offset="0.520833" stop-color="#81378D"/>
<stop offset="1" stop-color="#B371BE"/>
</linearGradient>
</defs>
</svg>
