<svg width="80" height="80" viewBox="0 0 80 80" fill="none" xmlns="http://www.w3.org/2000/svg">
<path d="M0 30C0 13.4315 13.4315 0 30 0H50C66.5685 0 80 13.4315 80 30V50C80 66.5685 66.5685 80 50 80H30C13.4315 80 0 66.5685 0 50V30Z" fill="url(#paint0_linear_123_303)"/>
<g clip-path="url(#clip0_123_303)">
<path d="M23.6665 24.8334C23.6665 22.6674 24.5269 20.5902 26.0585 19.0586C27.59 17.5271 29.6672 16.6667 31.8332 16.6667H39.9998V33H31.8332C29.6672 33 27.59 32.1396 26.0585 30.6081C24.5269 29.0765 23.6665 26.9993 23.6665 24.8334Z" stroke="#FAFAFA" stroke-width="8.33333" stroke-linecap="round" stroke-linejoin="round"/>
<path d="M40 16.6667H48.1667C49.2391 16.6667 50.3011 16.8779 51.2919 17.2883C52.2827 17.6988 53.183 18.3003 53.9414 19.0586C54.6997 19.817 55.3013 20.7173 55.7117 21.7081C56.1221 22.6989 56.3333 23.7609 56.3333 24.8334C56.3333 25.9058 56.1221 26.9678 55.7117 27.9586C55.3013 28.9494 54.6997 29.8497 53.9414 30.6081C53.183 31.3664 52.2827 31.968 51.2919 32.3784C50.3011 32.7888 49.2391 33 48.1667 33H40V16.6667Z" stroke="#FAFAFA" stroke-width="8.33333" stroke-linecap="round" stroke-linejoin="round"/>
<path d="M23.6665 57.5C23.6665 55.334 24.5269 53.2568 26.0585 51.7253C27.59 50.1937 29.6672 49.3333 31.8332 49.3333H39.9998V57.5C39.9998 59.6659 39.1394 61.7431 37.6079 63.2747C36.0763 64.8062 33.9991 65.6666 31.8332 65.6666C29.6672 65.6666 27.59 64.8062 26.0585 63.2747C24.5269 61.7431 23.6665 59.6659 23.6665 57.5Z" stroke="#FAFAFA" stroke-width="8.33333" stroke-linecap="round" stroke-linejoin="round"/>
<path d="M23.6665 41.1667C23.6665 39.0007 24.5269 36.9235 26.0585 35.392C27.59 33.8604 29.6672 33 31.8332 33H39.9998V49.3333H31.8332C29.6672 49.3333 27.59 48.4729 26.0585 46.9414C24.5269 45.4098 23.6665 43.3326 23.6665 41.1667Z" stroke="#FAFAFA" stroke-width="8.33333" stroke-linecap="round" stroke-linejoin="round"/>
</g>
<defs>
<linearGradient id="paint0_linear_123_303" x1="40" y1="0" x2="40" y2="80" gradientUnits="userSpaceOnUse">
<stop stop-color="#320439"/>
<stop offset="0.520833" stop-color="#81378D"/>
<stop offset="1" stop-color="#B371BE"/>
</linearGradient>
<clipPath id="clip0_123_303">
<path d="M12 40C12 24.536 24.536 12 40 12V12C55.464 12 68 24.536 68 40V40C68 55.464 55.464 68 40 68V68C24.536 68 12 55.464 12 40V40Z" fill="white"/>
</clipPath>
</defs>
</svg>
