<svg width="80" height="80" viewBox="0 0 80 80" fill="none" xmlns="http://www.w3.org/2000/svg">
<path d="M0 30C0 13.4315 13.4315 0 30 0H50C66.5685 0 80 13.4315 80 30V50C80 66.5685 66.5685 80 50 80H30C13.4315 80 0 66.5685 0 50V30Z" fill="url(#paint0_linear_123_319)"/>
<path fill-rule="evenodd" clip-rule="evenodd" d="M40 12C24.53 12 12 24.53 12 40C12 52.39 20.015 62.855 31.145 66.565C32.545 66.81 33.07 65.97 33.07 65.235C33.07 64.57 33.035 62.365 33.035 60.02C26 61.315 24.18 58.305 23.62 56.73C23.305 55.925 21.94 53.44 20.75 52.775C19.77 52.25 18.37 50.955 20.715 50.92C22.92 50.885 24.495 52.95 25.02 53.79C27.54 58.025 31.565 56.835 33.175 56.1C33.42 54.28 34.155 53.055 34.96 52.355C28.73 51.655 22.22 49.24 22.22 38.53C22.22 35.485 23.305 32.965 25.09 31.005C24.81 30.305 23.83 27.435 25.37 23.585C25.37 23.585 27.715 22.85 33.07 26.455C35.31 25.825 37.69 25.51 40.07 25.51C42.45 25.51 44.83 25.825 47.07 26.455C52.425 22.815 54.77 23.585 54.77 23.585C56.31 27.435 55.33 30.305 55.05 31.005C56.835 32.965 57.92 35.45 57.92 38.53C57.92 49.275 51.375 51.655 45.145 52.355C46.16 53.23 47.035 54.91 47.035 57.535C47.035 61.28 47 64.29 47 65.235C47 65.97 47.525 66.845 48.925 66.565C59.985 62.855 68 52.355 68 40C68 24.53 55.47 12 40 12Z" fill="#FAFAFA"/>
<defs>
<linearGradient id="paint0_linear_123_319" x1="40" y1="0" x2="40" y2="80" gradientUnits="userSpaceOnUse">
<stop stop-color="#320439"/>
<stop offset="0.520833" stop-color="#81378D"/>
<stop offset="1" stop-color="#B371BE"/>
</linearGradient>
</defs>
</svg>
