<svg width="80" height="80" viewBox="0 0 80 80" fill="none" xmlns="http://www.w3.org/2000/svg">
<path d="M0 30C0 13.4315 13.4315 0 30 0H50C66.5685 0 80 13.4315 80 30V50C80 66.5685 66.5685 80 50 80H30C13.4315 80 0 66.5685 0 50V30Z" fill="url(#paint0_linear_123_266)"/>
<path d="M17.158 65.8527L12 8H68.6772L63.5138 65.8436L40.3039 72.2781L17.158 65.8527Z" fill="#FAFAFA"/>
<path d="M40.3387 34.1871H30.9497L30.3012 26.9213H40.3387V19.8258H40.3142H22.5469L22.7167 21.7294L24.4606 41.2824H40.3387V34.1871Z" fill="#400D48"/>
<path d="M40.3389 52.6146L40.3078 52.6229L32.4056 50.4891L31.9005 44.8302H28.0606H24.7778L25.7719 55.971L40.3063 60.0058L40.3389 59.9968V52.6146Z" fill="#400D48"/>
<path d="M40.314 34.187V41.2823H49.0511L48.2276 50.4845L40.314 52.6204V60.0023L54.8599 55.9709L54.9666 54.7722L56.634 36.0923L56.8071 34.187H54.8951H40.314Z" fill="#400D48"/>
<path d="M40.314 19.8258V24.2327V26.9039V26.9213H57.4299H57.4527L57.5951 25.3264L57.9183 21.7294L58.088 19.8258H40.314Z" fill="#400D48"/>
<defs>
<linearGradient id="paint0_linear_123_266" x1="40" y1="0" x2="40" y2="80" gradientUnits="userSpaceOnUse">
<stop stop-color="#320439"/>
<stop offset="0.520833" stop-color="#81378D"/>
<stop offset="1" stop-color="#B371BE"/>
</linearGradient>
</defs>
</svg>
