<svg width="80" height="80" viewBox="0 0 80 80" fill="none" xmlns="http://www.w3.org/2000/svg">
<path d="M0 30C0 13.4315 13.4315 0 30 0H50C66.5685 0 80 13.4315 80 30V50C80 66.5685 66.5685 80 50 80H30C13.4315 80 0 66.5685 0 50V30Z" fill="url(#paint0_linear_123_298)"/>
<g clip-path="url(#clip0_123_298)">
<path d="M14.5688 14.8695L14.5768 15.5129C14.5811 15.8668 15.5918 27.5838 16.8227 41.5505L19.0606 66.9447L29.1192 69.8017C34.6515 71.373 39.292 72.6666 39.4316 72.6765C39.5711 72.6864 44.2729 71.4059 49.8801 69.8309C58.8701 67.3056 60.0837 66.9253 60.1481 66.6127C60.2378 66.1772 64.6402 15.7946 64.6357 15.2556L64.6324 14.8695H39.6005H14.5688Z" fill="#400D48"/>
<path d="M29.1193 69.8017L19.0607 66.9447L16.8227 41.5506C15.5918 27.5839 14.5812 15.867 14.5768 15.5131L14.5688 14.8697H39.6007H64.6325L64.6358 15.2557C64.6403 15.7948 60.2378 66.1774 60.1481 66.6129C60.0837 66.9255 58.8701 67.3058 49.8802 69.8311C44.273 71.4061 39.5711 72.6866 39.4316 72.6767C39.292 72.6668 34.6515 71.373 29.1193 69.8017ZM46.0072 59.9261C49.4843 58.9454 52.3785 58.062 52.4388 57.963C52.4991 57.864 52.9145 53.5516 53.3619 48.38C53.8093 43.2083 54.212 38.8418 54.2567 38.6766C54.3336 38.3929 53.742 38.3764 43.5361 38.3764H32.7341L33.194 33.4434C33.447 30.7303 33.66 28.5034 33.6675 28.4948C33.6749 28.4862 35.2603 28.4349 37.1905 28.3808C40.3556 28.2921 46.8825 28.5482 47.1009 28.7697C47.1824 28.8525 47.7191 34.1939 47.7191 34.9231C47.7191 35.2826 47.7669 35.2879 50.9965 35.2879H54.2738L54.1966 34.5587C54.1541 34.1576 53.8765 31.0498 53.5796 27.6525L53.0399 21.4756L40.4006 21.4316C30.3453 21.3966 27.761 21.4317 27.7599 21.6032C27.759 21.7217 27.6855 22.475 27.5961 23.2772C27.38 25.2182 25.7317 43.9728 25.7317 44.4908V44.8965H36.4866H47.2415L47.1456 45.5399C47.0928 45.8938 46.9257 47.689 46.7741 49.5292C46.6225 51.3694 46.4496 52.9226 46.39 52.9807C46.2324 53.1341 39.9054 54.8488 39.5109 54.845C39.3277 54.8432 37.6937 54.4296 35.8797 53.9259L32.5816 53.01L32.4607 51.5699C32.3942 50.7778 32.293 49.6471 32.2358 49.0573L32.1319 47.9849H28.9318H25.7317L25.7388 48.6284C25.752 49.8317 26.5212 57.9369 26.6329 58.0502C26.762 58.1812 39.0531 61.6862 39.4316 61.6999C39.5711 61.705 42.5301 60.9067 46.0072 59.9261Z" fill="#FAFAFA"/>
</g>
<defs>
<linearGradient id="paint0_linear_123_298" x1="40" y1="0" x2="40" y2="80" gradientUnits="userSpaceOnUse">
<stop stop-color="#320439"/>
<stop offset="0.520833" stop-color="#81378D"/>
<stop offset="1" stop-color="#B371BE"/>
</linearGradient>
<clipPath id="clip0_123_298">
<path d="M14.3999 26C14.3999 12.0824 25.6823 0.799988 39.5999 0.799988V0.799988C53.5175 0.799988 64.7999 12.0824 64.7999 26V47.6C64.7999 61.5176 53.5175 72.8 39.5999 72.8V72.8C25.6823 72.8 14.3999 61.5176 14.3999 47.6V26Z" fill="white"/>
</clipPath>
</defs>
</svg>
