<svg width="38" height="38" viewBox="0 0 38 38" fill="none" xmlns="http://www.w3.org/2000/svg">
<path d="M31.8153 0.641357H6.18498C3.12264 0.641357 0.640137 3.12386 0.640137 6.1862V31.8136C0.640137 34.8759 3.12264 37.3582 6.18498 37.3582H31.8151C34.8775 37.3582 37.36 34.8757 37.36 31.8136V6.18636C37.3601 3.12401 34.8775 0.641357 31.8153 0.641357Z" fill="#230128"/>
<path d="M11.751 31.4626V14.8578H6.23228V31.4626H11.751ZM8.99266 12.5906C10.9159 12.5906 12.1147 11.3155 12.1147 9.72183C12.0791 8.09282 10.9159 6.85304 9.0288 6.85304C7.14014 6.85304 5.90625 8.09282 5.90625 9.72183C5.90625 11.3155 7.10353 12.5906 8.9562 12.5906H8.99266Z" fill="#5A2D61"/>
<path d="M14.8052 31.4626H20.3248V22.1899C20.3248 21.6934 20.3608 21.1973 20.5068 20.8428C20.9048 19.8507 21.8136 18.8241 23.3379 18.8241C25.3352 18.8241 26.1336 20.3472 26.1336 22.5791V31.4626H31.6521V21.9414C31.6521 16.841 28.9299 14.468 25.2983 14.468C22.3213 14.468 21.0137 16.1315 20.2876 17.2651H20.3248V14.8578H14.8052C14.8784 16.4157 14.8052 31.4626 14.8052 31.4626Z" fill="#5B2E62"/>
</svg>
