<svg width="340" height="38" viewBox="0 0 340 38" fill="none" xmlns="http://www.w3.org/2000/svg">
<path d="M0 1.52H20.16V6.56H12.72V29.52H7.44V6.56H0V1.52Z" fill="#FAFAFA"/>
<path d="M30.5722 29.52H25.5322V1.52H30.5722V12.88H31.2922C31.7989 11.68 32.5455 10.76 33.5322 10.12C34.5189 9.45333 35.7322 9.12 37.1722 9.12C38.1589 9.12 39.0655 9.28 39.8922 9.6C40.7189 9.92 41.4389 10.4 42.0522 11.04C42.6655 11.68 43.1455 12.5067 43.4922 13.52C43.8389 14.5067 44.0122 15.68 44.0122 17.04V29.52H38.9722V18.24C38.9722 16.8267 38.6255 15.72 37.9322 14.92C37.2655 14.0933 36.2922 13.68 35.0122 13.68C33.5189 13.68 32.3989 14.1867 31.6522 15.2C30.9322 16.1867 30.5722 17.52 30.5722 19.2V29.52Z" fill="#FAFAFA"/>
<path d="M62.7844 26.64C62.251 27.8933 61.5044 28.7867 60.5444 29.32C59.5844 29.8267 58.4644 30.08 57.1844 30.08C55.9844 30.08 54.851 29.8533 53.7844 29.4C52.7444 28.9467 51.8244 28.28 51.0244 27.4C50.2244 26.52 49.5844 25.4533 49.1044 24.2C48.651 22.9467 48.4244 21.52 48.4244 19.92V19.28C48.4244 17.7067 48.651 16.2933 49.1044 15.04C49.5577 13.7867 50.171 12.72 50.9444 11.84C51.7177 10.96 52.611 10.2933 53.6244 9.84C54.6644 9.36 55.771 9.12 56.9444 9.12C58.3577 9.12 59.491 9.36 60.3444 9.84C61.2244 10.32 61.9177 11.0667 62.4244 12.08H63.1444V9.68H68.1844V23.52C68.1844 24.32 68.5444 24.72 69.2644 24.72H70.0244V29.52H66.5844C65.6777 29.52 64.931 29.2533 64.3444 28.72C63.7844 28.1867 63.5044 27.4933 63.5044 26.64H62.7844ZM58.3044 25.28C59.771 25.28 60.9444 24.8 61.8244 23.84C62.7044 22.8533 63.1444 21.52 63.1444 19.84V19.36C63.1444 17.68 62.7044 16.36 61.8244 15.4C60.9444 14.4133 59.771 13.92 58.3044 13.92C56.8377 13.92 55.6644 14.4133 54.7844 15.4C53.9044 16.36 53.4644 17.68 53.4644 19.36V19.84C53.4644 21.52 53.9044 22.8533 54.7844 23.84C55.6644 24.8 56.8377 25.28 58.3044 25.28Z" fill="#FAFAFA"/>
<path d="M74.7966 24.72H81.5166V14.48H75.2766V9.68H86.5566V24.72H92.3166V29.52H74.7966V24.72ZM87.7966 3.8C87.7966 4.33333 87.6899 4.84 87.4766 5.32C87.2899 5.77333 87.0232 6.17333 86.6766 6.52C86.3299 6.84 85.9166 7.10667 85.4366 7.32C84.9832 7.50667 84.5032 7.6 83.9966 7.6C83.4632 7.6 82.9699 7.50667 82.5166 7.32C82.0632 7.10667 81.6632 6.84 81.3166 6.52C80.9699 6.17333 80.6899 5.77333 80.4766 5.32C80.2899 4.84 80.1966 4.33333 80.1966 3.8C80.1966 3.26667 80.2899 2.77333 80.4766 2.32C80.6899 1.84 80.9699 1.44 81.3166 1.12C81.6632 0.773333 82.0632 0.506666 82.5166 0.320001C82.9699 0.106667 83.4632 0 83.9966 0C84.5032 0 84.9832 0.106667 85.4366 0.320001C85.9166 0.506666 86.3299 0.773333 86.6766 1.12C87.0232 1.44 87.2899 1.84 87.4766 2.32C87.6899 2.77333 87.7966 3.26667 87.7966 3.8Z" fill="#FAFAFA"/>
<path d="M105.249 15.28C105.249 15.92 105.582 16.3867 106.249 16.68C106.915 16.9467 108.129 17.1733 109.889 17.36C111.915 17.5733 113.569 18.1867 114.849 19.2C116.129 20.1867 116.769 21.5733 116.769 23.36V23.6C116.769 25.5733 116.049 27.1467 114.609 28.32C113.169 29.4933 111.142 30.08 108.529 30.08C106.982 30.08 105.662 29.88 104.569 29.48C103.475 29.08 102.569 28.5867 101.849 28C101.129 27.3867 100.569 26.72 100.169 26C99.7954 25.2533 99.5421 24.5333 99.4088 23.84L104.049 22.32C104.262 23.1733 104.702 23.92 105.369 24.56C106.062 25.2 107.115 25.52 108.529 25.52C109.782 25.52 110.635 25.3333 111.089 24.96C111.569 24.56 111.809 24.1333 111.809 23.68C111.809 23.4133 111.742 23.1733 111.609 22.96C111.502 22.72 111.289 22.5067 110.969 22.32C110.649 22.1067 110.209 21.9333 109.649 21.8C109.115 21.6667 108.435 21.56 107.609 21.48C105.369 21.2933 103.582 20.72 102.249 19.76C100.942 18.7733 100.289 17.3333 100.289 15.44V15.2C100.289 14.2133 100.502 13.3467 100.929 12.6C101.355 11.8533 101.915 11.2267 102.609 10.72C103.302 10.1867 104.102 9.78667 105.009 9.52C105.915 9.25333 106.849 9.12 107.809 9.12C109.062 9.12 110.142 9.28 111.049 9.6C111.982 9.89333 112.769 10.2933 113.409 10.8C114.049 11.28 114.569 11.8267 114.969 12.44C115.369 13.0267 115.675 13.6 115.889 14.16L111.329 16C111.089 15.28 110.675 14.72 110.089 14.32C109.502 13.8933 108.742 13.68 107.809 13.68C106.955 13.68 106.315 13.84 105.889 14.16C105.462 14.4533 105.249 14.8267 105.249 15.28Z" fill="#FAFAFA"/>
<path d="M160.833 26.88H161.553V1.52H166.833V29.52H156.513L153.233 4.16H152.513V16.84V29.52H147.233V1.52H157.553L160.833 26.88Z" fill="#FAFAFA"/>
<path d="M191.845 19.84C191.845 21.4933 191.565 22.96 191.005 24.24C190.445 25.4933 189.685 26.56 188.725 27.44C187.765 28.2933 186.659 28.9467 185.405 29.4C184.179 29.8533 182.885 30.08 181.525 30.08C180.165 30.08 178.859 29.8533 177.605 29.4C176.379 28.9467 175.285 28.2933 174.325 27.44C173.365 26.56 172.605 25.4933 172.045 24.24C171.485 22.96 171.205 21.4933 171.205 19.84V19.36C171.205 17.7333 171.485 16.2933 172.045 15.04C172.605 13.76 173.365 12.68 174.325 11.8C175.285 10.92 176.379 10.2533 177.605 9.8C178.859 9.34667 180.165 9.12 181.525 9.12C182.885 9.12 184.179 9.34667 185.405 9.8C186.659 10.2533 187.765 10.92 188.725 11.8C189.685 12.68 190.445 13.76 191.005 15.04C191.565 16.2933 191.845 17.7333 191.845 19.36V19.84ZM181.525 25.28C182.245 25.28 182.925 25.16 183.565 24.92C184.205 24.68 184.765 24.3333 185.245 23.88C185.725 23.4267 186.099 22.88 186.365 22.24C186.659 21.5733 186.805 20.8267 186.805 20V19.2C186.805 18.3733 186.659 17.64 186.365 17C186.099 16.3333 185.725 15.7733 185.245 15.32C184.765 14.8667 184.205 14.52 183.565 14.28C182.925 14.04 182.245 13.92 181.525 13.92C180.805 13.92 180.125 14.04 179.485 14.28C178.845 14.52 178.285 14.8667 177.805 15.32C177.325 15.7733 176.939 16.3333 176.645 17C176.379 17.64 176.245 18.3733 176.245 19.2V20C176.245 20.8267 176.379 21.5733 176.645 22.24C176.939 22.88 177.325 23.4267 177.805 23.88C178.285 24.3333 178.845 24.68 179.485 24.92C180.125 25.16 180.805 25.28 181.525 25.28Z" fill="#FAFAFA"/>
<path d="M211.057 26.64H210.337C210.124 27.0933 209.858 27.5333 209.538 27.96C209.244 28.36 208.844 28.72 208.337 29.04C207.857 29.36 207.271 29.6133 206.577 29.8C205.911 29.9867 205.097 30.08 204.137 30.08C202.911 30.08 201.764 29.8667 200.697 29.44C199.657 28.9867 198.738 28.3333 197.938 27.48C197.164 26.6 196.551 25.5333 196.098 24.28C195.671 23.0267 195.458 21.5867 195.458 19.96V19.24C195.458 17.64 195.684 16.2133 196.137 14.96C196.617 13.7067 197.257 12.6533 198.057 11.8C198.884 10.92 199.831 10.2533 200.898 9.8C201.991 9.34667 203.137 9.12 204.337 9.12C205.937 9.12 207.204 9.42667 208.137 10.04C209.071 10.6267 209.804 11.4667 210.337 12.56H211.057V9.68H216.098V34.4C216.098 35.3067 215.804 36.0533 215.217 36.64C214.657 37.2267 213.924 37.52 213.018 37.52H199.658V32.72H209.978C210.698 32.72 211.057 32.32 211.057 31.52V26.64ZM205.777 25.28C207.351 25.28 208.617 24.7867 209.577 23.8C210.564 22.7867 211.057 21.4667 211.057 19.84V19.36C211.057 17.7333 210.564 16.4267 209.577 15.44C208.617 14.4267 207.351 13.92 205.777 13.92C204.204 13.92 202.924 14.4133 201.938 15.4C200.978 16.36 200.497 17.68 200.497 19.36V19.84C200.497 21.52 200.978 22.8533 201.938 23.84C202.924 24.8 204.204 25.28 205.777 25.28Z" fill="#FAFAFA"/>
<path d="M234.83 9.68H239.87V29.52H234.83V26.64H234.11C233.23 28.9333 231.336 30.08 228.43 30.08C227.443 30.08 226.523 29.92 225.67 29.6C224.816 29.28 224.07 28.7867 223.43 28.12C222.79 27.4533 222.283 26.6267 221.91 25.64C221.563 24.6267 221.39 23.44 221.39 22.08V9.68H226.43V21.04C226.43 22.4533 226.763 23.56 227.43 24.36C228.096 25.1333 229.096 25.52 230.43 25.52C231.95 25.52 233.056 25.04 233.75 24.08C234.47 23.0933 234.83 21.76 234.83 20.08V9.68Z" fill="#FAFAFA"/>
<path d="M250.322 21.24C250.349 21.8267 250.482 22.3733 250.722 22.88C250.989 23.36 251.335 23.7867 251.762 24.16C252.215 24.5067 252.722 24.7867 253.282 25C253.869 25.1867 254.482 25.28 255.122 25.28C256.375 25.28 257.335 25.0667 258.002 24.64C258.669 24.1867 259.149 23.6533 259.442 23.04L263.762 25.44C263.522 25.9467 263.189 26.48 262.762 27.04C262.335 27.5733 261.775 28.0667 261.082 28.52C260.415 28.9733 259.589 29.3467 258.602 29.64C257.642 29.9333 256.509 30.08 255.202 30.08C253.709 30.08 252.349 29.84 251.122 29.36C249.895 28.88 248.829 28.1867 247.922 27.28C247.042 26.3733 246.349 25.2667 245.842 23.96C245.362 22.6533 245.122 21.1733 245.122 19.52V19.28C245.122 17.76 245.375 16.3733 245.882 15.12C246.415 13.8667 247.135 12.8 248.042 11.92C248.949 11.04 250.002 10.36 251.202 9.88C252.429 9.37333 253.735 9.12 255.122 9.12C256.829 9.12 258.295 9.42667 259.522 10.04C260.749 10.6267 261.762 11.3867 262.562 12.32C263.362 13.2267 263.949 14.24 264.322 15.36C264.695 16.4533 264.882 17.52 264.882 18.56V21.24H250.322ZM255.082 13.68C253.802 13.68 252.762 14.0133 251.962 14.68C251.162 15.32 250.642 16.0667 250.402 16.92H259.762C259.602 15.9867 259.095 15.2133 258.242 14.6C257.415 13.9867 256.362 13.68 255.082 13.68Z" fill="#FAFAFA"/>
<path d="M270.734 24.72H277.454V14.48H271.214V9.68H282.494V24.72H288.254V29.52H270.734V24.72ZM283.734 3.8C283.734 4.33333 283.627 4.84 283.414 5.32C283.227 5.77333 282.961 6.17333 282.614 6.52C282.267 6.84 281.854 7.10667 281.374 7.32C280.921 7.50667 280.441 7.6 279.934 7.6C279.401 7.6 278.907 7.50667 278.454 7.32C278.001 7.10667 277.601 6.84 277.254 6.52C276.907 6.17333 276.627 5.77333 276.414 5.32C276.227 4.84 276.134 4.33333 276.134 3.8C276.134 3.26667 276.227 2.77333 276.414 2.32C276.627 1.84 276.907 1.44 277.254 1.12C277.601 0.773333 278.001 0.506666 278.454 0.320001C278.907 0.106667 279.401 0 279.934 0C280.441 0 280.921 0.106667 281.374 0.320001C281.854 0.506666 282.267 0.773333 282.614 1.12C282.961 1.44 283.227 1.84 283.414 2.32C283.627 2.77333 283.734 3.26667 283.734 3.8Z" fill="#FAFAFA"/>
<path d="M293.906 9.68H302.306V12.56H303.026C303.4 11.4667 304.026 10.6267 304.906 10.04C305.813 9.42667 306.893 9.12 308.146 9.12C310.12 9.12 311.706 9.74667 312.906 11C314.106 12.2267 314.706 14.1067 314.706 16.64V17.52L309.506 18V17.44C309.506 16.3467 309.226 15.48 308.666 14.84C308.106 14.1733 307.266 13.84 306.146 13.84C305.026 13.84 304.146 14.2267 303.506 15C302.866 15.7733 302.546 16.88 302.546 18.32V24.72H307.106V29.52H293.426V24.72H297.506V14.48H293.906V9.68Z" fill="#FAFAFA"/>
<path d="M332.198 26.64C331.665 27.8933 330.918 28.7867 329.958 29.32C328.998 29.8267 327.878 30.08 326.598 30.08C325.398 30.08 324.265 29.8533 323.198 29.4C322.158 28.9467 321.238 28.28 320.438 27.4C319.638 26.52 318.998 25.4533 318.518 24.2C318.065 22.9467 317.838 21.52 317.838 19.92V19.28C317.838 17.7067 318.065 16.2933 318.518 15.04C318.972 13.7867 319.585 12.72 320.358 11.84C321.132 10.96 322.025 10.2933 323.038 9.84C324.078 9.36 325.185 9.12 326.358 9.12C327.772 9.12 328.905 9.36 329.758 9.84C330.638 10.32 331.332 11.0667 331.838 12.08H332.558V9.68H337.598V23.52C337.598 24.32 337.958 24.72 338.678 24.72H339.438V29.52H335.998C335.092 29.52 334.345 29.2533 333.758 28.72C333.198 28.1867 332.918 27.4933 332.918 26.64H332.198ZM327.718 25.28C329.185 25.28 330.358 24.8 331.238 23.84C332.118 22.8533 332.558 21.52 332.558 19.84V19.36C332.558 17.68 332.118 16.36 331.238 15.4C330.358 14.4133 329.185 13.92 327.718 13.92C326.252 13.92 325.078 14.4133 324.198 15.4C323.318 16.36 322.878 17.68 322.878 19.36V19.84C322.878 21.52 323.318 22.8533 324.198 23.84C325.078 24.8 326.252 25.28 327.718 25.28Z" fill="#FAFAFA"/>
</svg>
