<svg width="80" height="80" viewBox="0 0 80 80" fill="none" xmlns="http://www.w3.org/2000/svg">
<path d="M0 30C0 13.4315 13.4315 0 30 0H50C66.5685 0 80 13.4315 80 30V50C80 66.5685 66.5685 80 50 80H30C13.4315 80 0 66.5685 0 50V30Z" fill="url(#paint0_linear_123_311)"/>
<path d="M42.6916 22.1947L31.5478 40.582L43.4345 60.0837C43.5088 60.2323 43.5459 60.3808 43.5088 60.5294C43.4716 60.678 43.3231 60.5666 43.1002 60.6037H34.5937C33.9994 60.6037 33.5908 60.5666 33.3308 60.1951C32.5507 58.635 31.7335 57.112 30.9534 55.5519C30.1734 54.0289 29.319 52.4687 28.4275 50.8714C27.536 49.2742 26.6445 47.6769 25.753 46.0425H25.6787C24.8986 47.6397 24.0443 49.237 23.1899 50.8343C22.3355 52.4316 21.4812 54.0289 20.664 55.589C19.8096 57.1491 18.9552 58.7464 18.1009 60.2694C17.9523 60.6409 17.6551 60.678 17.2465 60.678H9.0744C8.92582 60.678 8.81438 60.7523 8.81438 60.5666C8.77723 60.418 8.81438 60.2694 8.88867 60.158L20.4411 41.2135L9.18584 22.1576C9.0744 22.009 9.03725 21.8604 9.11155 21.7861C9.18584 21.6747 9.33442 21.6375 9.48301 21.6375H17.9152C18.1009 21.6375 18.2866 21.6747 18.4352 21.7118C18.5838 21.7861 18.6952 21.8975 18.8067 22.0461C19.5124 23.6434 20.3297 25.2407 21.184 26.838C22.0755 28.4352 22.9299 29.9954 23.8585 31.5555C24.75 33.1156 25.5672 34.6758 26.3473 36.2731H26.4216C27.2017 34.6386 28.0189 33.0413 28.8361 31.4812C29.6533 29.9211 30.5077 28.3609 31.362 26.8008C32.2164 25.2407 33.0336 23.6434 33.8508 22.1204C33.888 21.9718 33.9622 21.8232 34.0737 21.749C34.2223 21.6747 34.3709 21.6375 34.5566 21.6747H42.3944C42.5801 21.6375 42.7659 21.749 42.803 21.9347C42.8402 21.9718 42.7659 22.1204 42.6916 22.1947Z" fill="#FAFAFA"/>
<path d="M59.8533 61.3838C57.1044 61.4209 54.3556 60.8637 51.8669 59.7122C49.5267 58.635 47.5951 56.852 46.2578 54.6603C44.8834 52.3944 44.2148 49.5713 44.2148 46.191C44.1776 43.4422 44.8834 40.7306 46.2578 38.3532C47.6694 35.9387 49.7124 33.9328 52.164 32.5956C54.7642 31.1469 57.8845 30.4411 61.562 30.4411C61.7477 30.4411 62.0077 30.4411 62.342 30.4783C62.6764 30.5154 63.0478 30.5154 63.4936 30.5526V18.8144C63.4936 18.5544 63.605 18.4058 63.865 18.4058H71.4057C71.5914 18.3687 71.74 18.5172 71.7771 18.6658C71.7771 18.703 71.7771 18.7401 71.7771 18.7401V54.1031C71.7771 54.7718 71.8143 55.5147 71.8514 56.3319C71.9257 57.112 71.9629 57.8549 72 58.4864C72 58.7464 71.8886 58.9693 71.6286 59.0807C69.697 59.8979 67.6539 60.4923 65.5738 60.8637C63.6793 61.198 61.7849 61.3838 59.8533 61.3838ZM63.4936 53.9546V37.6103C63.1593 37.536 62.8249 37.4617 62.4906 37.4246C62.082 37.3874 61.6734 37.3503 61.2648 37.3503C59.8161 37.3503 58.3674 37.6474 57.0673 38.3161C55.8043 38.9476 54.7271 39.8762 53.9099 41.0649C53.0927 42.2536 52.6841 43.8508 52.6841 45.7824C52.6469 47.0825 52.8698 48.3827 53.3156 49.6085C53.687 50.6114 54.2442 51.5029 54.9871 52.2458C55.6929 52.9145 56.5473 53.4345 57.5131 53.7317C58.516 54.066 59.5561 54.2146 60.5962 54.2146C61.1534 54.2146 61.6734 54.1774 62.1563 54.1403C62.6392 54.1774 63.0478 54.1031 63.4936 53.9546Z" fill="#FAFAFA"/>
<defs>
<linearGradient id="paint0_linear_123_311" x1="40" y1="0" x2="40" y2="80" gradientUnits="userSpaceOnUse">
<stop stop-color="#320439"/>
<stop offset="0.520833" stop-color="#81378D"/>
<stop offset="1" stop-color="#B371BE"/>
</linearGradient>
</defs>
</svg>
